<svg width="72" height="72" xmlns="http://www.w3.org/2000/svg"><g fill="none" fill-rule="evenodd"><path fill="#FFF" d="M-579-297H861v1880H-579z"/><path fill="#FFF" d="M34.054 15.672l21.62 21.605L24.63 69.169l-4.907-1.247L5.934 54.485l-1.806-7.14 1.806-4.138zm4.605 1.941l15.847 16.914L67.71 19.99l-17-16.104z"/><path d="M70.205 18.68L52.802 1.587a2.05 2.05 0 0 0-2.871-.003L36.879 14.357l-1.466-1.465a2.05 2.05 0 0 0-2.908.008L3.825 41.893c-4 4-4.013 10.477-.011 14.49L15.09 67.974a10.25 10.25 0 0 0 14.522.02l29.004-29.001a2.05 2.05 0 0 0 0-2.9l-1.45-1.45 13.052-13.05a2.05 2.05 0 0 0-.013-2.914zM26.712 65.093a6.15 6.15 0 0 1-8.692.01L6.745 53.513l-.02-.02a6.148 6.148 0 0 1 .008-8.709L33.97 17.25l20.295 20.293-27.554 27.551zm27.554-33.351L39.779 17.258 51.363 5.923l14.491 14.232-11.588 11.588z" stroke="#999" fill="#999" fill-rule="nonzero"/><path d="M16.582 44.67l16.29-16.29a1 1 0 0 1 1.414 0l8.815 8.815a1 1 0 0 1 0 1.414L26.81 54.9a4 4 0 0 1-5.657 0l-4.572-4.572a4 4 0 0 1 0-5.657z" stroke="#999" stroke-width="3.8" fill="#CECECE"/><path d="M23.645 47.686l1.038-1.113m4.287-4.213l4.153-4.45" stroke="#999" stroke-linecap="round" stroke-width="3.8"/><path d="M53.427 13.066a2.228 2.228 0 0 0-3.152 0l-3.151 3.151a2.228 2.228 0 1 0 3.151 3.152l3.152-3.152c.87-.87.87-2.281 0-3.151zm5.326 5.326a2.228 2.228 0 0 0-3.152 0l-3.151 3.151a2.228 2.228 0 1 0 3.151 3.152l3.152-3.152c.87-.87.87-2.28 0-3.151z" fill="#999" fill-rule="nonzero"/></g></svg>