<svg width="71" height="68" xmlns="http://www.w3.org/2000/svg"><g fill="none" fill-rule="evenodd"><path fill="#FFF" d="M-792-301H648v1880H-792z"/><path d="M8.887 28.958a5.5 5.5 0 0 1-.352 1.266L3.064 43.506a.5.5 0 0 0 .187.609l32.26 21.213a.5.5 0 0 0 .551 0L68.21 44.106a.5.5 0 0 0 .188-.603L63.04 30.17a5.5 5.5 0 0 1-.32-1.134L58.446 3.743a.5.5 0 0 0-.86-.256L45.694 16.404a5.5 5.5 0 0 1-4.047 1.775H29.871a5.5 5.5 0 0 1-3.995-1.72L13.588 3.47a.5.5 0 0 0-.857.268l-3.844 25.22z" stroke="#999" stroke-width="5"/><path fill="#CECECE" d="M8.974 45.004l26.865 17.66 26.022-17.29-15.725-7.014-8.686 10.484-10.851-9.774z"/><path d="M2.844 43.869l22.746-5.445a1 1 0 0 1 1.001.332l8.684 10.423a1 1 0 0 0 1.586-.065l7.216-10.271a1 1 0 0 1 1.063-.395l21.432 5.421" stroke="#999" stroke-width="5"/></g></svg>