<svg width="71" height="71" xmlns="http://www.w3.org/2000/svg"><g fill="none" fill-rule="evenodd"><path fill="#FFF" d="M-361-299h1440v1880H-361z"/><g transform="translate(12.235)" fill="#CECECE"><circle cx="3.025" cy="3.025" r="3.025"/><circle cx="10.802" cy="7.346" r="3.025"/><circle cx="18.58" cy="11.667" r="3.025"/></g><path fill="#FFF" d="M28.462 15.016l12.936 7.573v15.414L28.462 30.72zm29.277 0L44.802 22.78v15.9l12.937-7.61z"/><g fill-rule="nonzero"><path fill="#00FFB0" d="M42.827 21.84l8.319-4.824 7.81-4.529-16.13-9.343-7.81 4.528-8.319 4.815z"/><path d="M61.139 12.415a1.708 1.708 0 0 0-.056-.415c-.016-.057-.047-.108-.068-.163-.033-.084-.06-.17-.104-.248-.03-.055-.076-.098-.113-.148-.051-.07-.097-.144-.158-.206-.044-.043-.1-.075-.148-.115-.066-.053-.127-.112-.202-.156l-.011-.004-.009-.006-16.324-9.237a1.718 1.718 0 0 0-1.693 0l-7.901 4.475h-.003l-8.42 4.76-.008.008c-.004.001-.008.002-.01.004-.074.042-.132.1-.197.152-.05.04-.108.073-.152.119-.064.063-.111.138-.164.21-.035.048-.079.091-.108.143-.049.084-.079.178-.113.269-.018.048-.045.092-.059.142a1.67 1.67 0 0 0-.053.4c-.002.016-.008.032-.008.049V31.78c0 .62.334 1.19.872 1.495l16.325 9.237c.087.049.181.078.274.11.045.017.087.043.133.055a1.689 1.689 0 0 0 .878 0c.046-.011.088-.037.133-.054.093-.032.187-.061.274-.11l16.325-9.237a1.72 1.72 0 0 0 .872-1.496V12.45c0-.012-.004-.023-.004-.034zm-32.645 2.981l12.888 7.3V38.07l-12.888-7.292V15.396zm29.212 15.382L44.818 38.07V22.695l12.888-7.299v15.382z" stroke="#999" fill="#999"/><path fill="#E0E0E0" d="M43.434 18.445l12.362-6.778-12.408-6.981-12.317 7.05z"/></g><path fill="#FFF" d="M4.404 28.648l12.937 7.573v15.414L4.404 44.354zm29.277 0l-12.936 7.766V52.31l12.936-7.61z"/><g fill-rule="nonzero"><path fill="#00FFB0" d="M18.77 35.472l8.319-4.824 7.81-4.528-16.13-9.344-7.81 4.529L2.64 26.12z"/><path d="M37.081 26.047a1.708 1.708 0 0 0-.055-.415c-.016-.057-.047-.108-.068-.163-.033-.084-.06-.17-.104-.248-.031-.054-.076-.098-.113-.148-.051-.07-.097-.143-.159-.205-.044-.044-.1-.076-.147-.115-.067-.054-.128-.113-.202-.157l-.012-.004-.008-.006-16.325-9.236a1.718 1.718 0 0 0-1.692 0l-7.901 4.474-.003.001-8.42 4.76-.009.007-.01.004c-.073.042-.131.1-.196.152-.05.04-.108.073-.153.119-.063.064-.11.138-.163.21-.035.049-.079.092-.108.143-.05.084-.08.178-.113.269-.018.048-.045.093-.059.143a1.67 1.67 0 0 0-.053.4c-.002.015-.008.03-.008.048v19.332c0 .62.333 1.19.872 1.496l16.325 9.236c.087.05.18.078.274.111.044.016.086.042.133.054a1.689 1.689 0 0 0 .878.001c.045-.012.088-.038.133-.054.093-.033.187-.062.274-.11l16.325-9.237a1.72 1.72 0 0 0 .872-1.496V26.08c0-.012-.005-.022-.005-.034zM4.437 29.03l12.888 7.299v15.374L4.437 44.41V29.03zm29.212 15.38l-12.888 7.292V36.328l12.888-7.3V44.41z" stroke="#999" fill="#999"/><path fill="#CECECE" d="M19.376 32.077L31.74 25.3l-12.41-6.98-12.317 7.05z"/></g><path fill="#FFF" d="M28.462 42.28l12.936 7.573v15.414l-12.936-7.28zm29.277 0l-12.937 7.766v15.898l12.937-7.61z"/><g fill-rule="nonzero"><path fill="#00FFB0" d="M42.827 49.105l8.319-4.824 7.81-4.529-16.13-9.343-7.81 4.528-8.319 4.815z"/><path d="M61.139 39.68a1.708 1.708 0 0 0-.056-.415c-.016-.058-.047-.108-.068-.163-.033-.085-.06-.17-.104-.249-.03-.054-.076-.098-.113-.147-.051-.07-.097-.144-.158-.206-.044-.044-.1-.075-.148-.115-.066-.053-.127-.112-.202-.156l-.011-.005c-.004-.001-.006-.004-.009-.006l-16.324-9.236a1.718 1.718 0 0 0-1.693 0l-7.901 4.475h-.003l-8.42 4.76-.008.007-.01.005c-.074.042-.132.1-.197.152-.05.04-.108.073-.152.118-.064.064-.111.139-.164.21-.035.049-.079.092-.108.143-.049.085-.079.178-.113.27-.018.048-.045.092-.059.142a1.67 1.67 0 0 0-.053.4c-.002.016-.008.031-.008.049v19.331c0 .62.334 1.191.872 1.496l16.325 9.237c.087.049.181.078.274.11.045.017.087.043.133.055a1.689 1.689 0 0 0 .878 0c.046-.012.088-.037.133-.054.093-.032.187-.062.274-.11l16.325-9.237a1.72 1.72 0 0 0 .872-1.496V39.713c0-.012-.004-.022-.004-.033zm-32.645 2.98l12.888 7.3v15.374l-12.888-7.292V42.66zm29.212 15.382l-12.888 7.292V49.96l12.888-7.299v15.382z" stroke="#999" fill="#999"/><path fill="#CECECE" d="M43.434 45.71l12.362-6.778-12.408-6.981L31.07 39z"/></g><g transform="translate(49.395 51.852)" fill="#CECECE"><circle cx="3.025" cy="3.025" r="3.025"/><circle cx="10.802" cy="7.346" r="3.025"/><circle cx="18.58" cy="11.667" r="3.025"/></g></g></svg>